<svg xmlns="http://www.w3.org/2000/svg" width="16" height="16" viewBox="0 0 16 16"><path fill="#fff" d="M13.9 4.6h-.1l-.3.3h-.4l.2-.5h-.5A4.9 4.9 0 0 1 11 6.9c1.8-3.6 3.7-8.3-1.7-6.5-2.6.9-6.1 2.5-6.4 5.2S7.1 8.9 8 7.8s.1-.1.1-.2h.1l-.5-.7v.2H7c0-.1-.3-.4-.4-.6h-.1c0-.1 0-.3.2-.3h.4l-.5-.6a4.8 4.8 0 0 1-1.8.6h-.5c-.1 0-.2.1-.3 0v-.3a4.1 4.1 0 0 1 1.4-2.4 15.8 15.8 0 0 1 2-1.4l.5-.3.6-.2.8-.2a2 2 0 0 1 1.1.2 1.5 1.5 0 0 1 .6 1.3c0 .3-.1.5-.1.8v.2a1.4 1.4 0 0 1-.2.6 5.6 5.6 0 0 1-.4 1.2 24.4 24.4 0 0 1-1 2.4c-1 .4-2.1.7-3.1 1.2s-3.9 2.5-4.4 4.5a2.2 2.2 0 0 0-.1.8s.1 3.1 3.9.1a9.7 9.7 0 0 0 1.9-1.8A27.7 27.7 0 0 0 9.8 9l.3-.6 1-.5a7.3 7.3 0 0 0 3.3-3.2h-.5zM7.5 7.3h.2l.2.3-.2.2s-.4-.3-.2-.5zm-.9-1.6l.3.3h-.2c-.2.1-.3-.3-.3-.3zm-.4.6a3.4 3.4 0 0 0 .9 1.2h.1l-.9.5a1.8 1.8 0 0 1-.7-.5 2 2 0 0 1-.5-.9zm-1.4.3a3.3 3.3 0 0 0 1 1.4h.1A1.6 1.6 0 0 1 4 6.7zm-1.6-.9s0-.7.5-.9a2.8 2.8 0 0 0 .1 2.4s-.7-.2-.6-1.5zm8.7-2h-.4a.9.9 0 0 0 .1-.5.6.6 0 0 0 0-.6 1.3 1.3 0 0 1 .8-.3 11.2 11.2 0 0 1-.5 1.4zm.5-2.1a.3.3 0 0 1 0 .4l-.8.3c0-.1-.1-.2-.1-.3a1 1 0 0 0-.4-.5 2.4 2.4 0 0 1 1.1-.6 1.4 1.4 0 0 1 .2.7zm-1.5-.3l-.3-.2-.8-.2c.8-.3 1.5-.5 2-.2a1.8 1.8 0 0 0-.9.6zm.3 3.4c.1-.1.1-.3.2-.4l.3-.2-.7 1.3a6.4 6.4 0 0 0 .2-.7zm-4.8 5l1.5-.6-.6.3-.9.5zm-.5.2h.3l-.2.2-1 .9-.5-.2zm-3.5 3.3l.3-.5h.9a2.6 2.6 0 0 0-.3 1.3 2.5 2.5 0 0 0-1.2.1 2.4 2.4 0 0 1 .3-.9zm.4 2.1a1.2 1.2 0 0 1-.6-.6l.6-.2h.5a.9.9 0 0 0 .3.6zm.9-2.8H3a6.3 6.3 0 0 1 1.1-1.2l.5.2-.8 1.2zm.5 1.9A.4.4 0 0 1 4 14l.6.3h-.4zm.9-.3h-.7l.8-.3h.4zm.9-.7h-.5l1.3-1zm2.5-3.5a24.9 24.9 0 0 1-2 2.4c-1.6 1.7-2.2 1.6-2.4 1.3l.6-1.3a12 12 0 0 1 2.6-2.4l.8-.5.7-.3.3-.2zm4.4-5.2h.2l-.2.2h-.1zM11 7.5l-.6.3.3-.4h.1l.6-.4.3.2zm1-.6l-.4-.2.6-.6.6.2zm1-1a.7.7 0 0 1-.6-.1.9.9 0 0 0 .4-.6h.7a.1.1 0 0 1 .1.1h-.1zm1-.8h-.2a1 1 0 0 0 .1-.3h.2z"/></svg>