<svg xmlns="http://www.w3.org/2000/svg" width="32" height="32" viewBox="0 0 32 32"><path fill="#fff" d="M27.7 9.3h-.1l-.7.7h-.8l.4-1-.9-.2a8.8 8.8 0 0 1-3.7 4.8c3.7-7 7.4-16.5-3.3-12.8C13.5 2.7 6.5 5.9 5.9 11.2c-.7 7.1 8.4 6.6 10.1 4.4l.2-.3h.1l-.8-1.3-.4.3-.4.3h-.4l-.3-.3a6.5 6.5 0 0 1-.9-1.1.4.4 0 0 1 .2-.5h.4l.5-.3a5.2 5.2 0 0 0-1-1.1 14.2 14.2 0 0 1-3.5 1.1h-1c-.3 0-.6.1-.7-.2V12a7.6 7.6 0 0 1 2.9-4.8l4-2.8 1-.6 1.1-.5a10.1 10.1 0 0 1 1.7-.3 3 3 0 0 1 2.1.4A2.8 2.8 0 0 1 22 5.8l-.3 1.7a.4.4 0 0 1-.1.3 9.3 9.3 0 0 1-.4 1.3 19.5 19.5 0 0 1-.8 2.2 52.1 52.1 0 0 1-2 5 46.7 46.7 0 0 0-6.2 2.4c-3.9 1.9-7.8 4.9-8.8 8.9a7.7 7.7 0 0 0-.2 1.5s.3 6.2 7.8.3a19.7 19.7 0 0 0 3.8-3.6 48.9 48.9 0 0 0 4.8-7.9l.7-1.1 1.9-1c2.7-1.6 5.3-3.6 6.6-6.3zM15 14.7l.4-.3.5.7-.4.3s-.9-.4-.5-.7zm-1.7-3.2l.4.6-.4.2c-.4.2-.5-.6-.5-.6zm-.9 1a6.8 6.8 0 0 0 1.8 2.6h.2a7.1 7.1 0 0 1-1.8.8 3.9 3.9 0 0 1-1.5-1.1 7.6 7.6 0 0 1-.9-1.8 7.9 7.9 0 0 0 2.2-.5zm-2.7.7a5.6 5.6 0 0 0 2 2.8h.2A3.3 3.3 0 0 1 8 13.3zm-3.2-1.7s0-1.5.9-1.9-1.1 2.7.2 4.8c0 0-1.3-.4-1.1-2.9zm17.3-4h-.1l-.7.2a4.3 4.3 0 0 0 .2-1.1 4.9 4.9 0 0 0 .1-1.2 3.5 3.5 0 0 1 1.4-.6 12.2 12.2 0 0 1-.9 2.7zm1-4.2a1.4 1.4 0 0 1 0 .9 3 3 0 0 0-1.6.5l-.3-.7a3.3 3.3 0 0 0-.6-1 3.1 3.1 0 0 1 2-1.1 2.2 2.2 0 0 1 .5 1.4zm-3-.7l-.6-.3a4.7 4.7 0 0 0-1.7-.4 6 6 0 0 1 4.2-.5 3.5 3.5 0 0 0-1.9 1.2zm.6 6.9l.3-.9.7-.4c-.4.9-1 1.8-1.5 2.7zm-9.6 9.9l2.9-1.3-1.2.8-1.6.9-.4-.3zm-.9.4c.2.1.4.1.6.3l-.4.3A11.6 11.6 0 0 0 10 22l-.9-.4a16.7 16.7 0 0 1 2.8-1.8zm-7 6.5a4.7 4.7 0 0 1 .5-1h.5l.5.2.7.3a7.8 7.8 0 0 0-.4 2.2h-.1a3.7 3.7 0 0 0-2.3.2 4.8 4.8 0 0 1 .6-1.9zm.7 4.2c-.6-.1-.9-.7-1.1-1.2l1.1-.3h1a1.7 1.7 0 0 0 .6 1.2 2.9 2.9 0 0 1-1.6.3zM7.5 25l-.9-.3-.6-.2a15.8 15.8 0 0 1 2.2-2.3l1.1.4A18.8 18.8 0 0 0 7.5 25zm.8 3.8a.8.8 0 0 1-.2-.9 2.6 2.6 0 0 0 1 .7h.5a2 2 0 0 1-1.3.2zm2-.6a1.4 1.4 0 0 1-.9 0l-.5-.2a5.2 5.2 0 0 0 1.6-.7.9.9 0 0 0 .6.3zm1.7-1.4l-.4.2c-.1 0-.5.2-.7 0a17 17 0 0 0 2.8-2.1 10.8 10.8 0 0 1-1.7 1.9zm5-7a49.7 49.7 0 0 1-3.9 4.7c-3.3 3.5-4.4 3.3-4.8 2.6a14.2 14.2 0 0 1 1.2-2.5 17.3 17.3 0 0 1 5-4.7l1.7-1.1 1.4-.7.6-.3zm8.8-10.4h.3s-.1.4-.3.5h-.2zM22 15.1l-1.1.6a4.1 4.1 0 0 1 .5-.9l.2-.2 1.1-.8.7.4zm2-1.3h-.1l-.7-.4 1.1-1.1 1.2.3zm2-2a1.3 1.3 0 0 1-1.2-.1l.8-1.2h1.3c.2.1.2.1.2.2H27a2.9 2.9 0 0 1-1 1.1zm1.9-1.6h-.4l.3-.4h.4z"/></svg>