<svg xmlns="http://www.w3.org/2000/svg" width="64" height="64" viewBox="0 0 64 64"><path fill="#fff" d="M55.4 18.5a.1.1 0 0 1-.1.1 10.7 10.7 0 0 1-1.4 1.6h-.1a3.8 3.8 0 0 1-1.5 0A14.2 14.2 0 0 0 53 18l-1.7-.2c-1 3.8-4 7-7.4 9.6 7.3-14.2 14.8-33.2-6.7-25.7-10.2 3.5-24.4 10-25.4 20.7-1.4 14.2 16.8 13.2 20.2 8.7l.5-.6h.1l-1.7-2.6-.7.6-.9.7h-.6a1.8 1.8 0 0 1-.7-.5 13 13 0 0 1-1.8-2.2h-.1a.9.9 0 0 1 .5-1.1l.8-.2 1.1-.7a13.9 13.9 0 0 0-2.1-2.1 28.5 28.5 0 0 1-7 2.2l-2.1.2c-.5 0-1.1.2-1.3-.3s-.2-.3-.2-.5c.4-3.1 2.2-6.5 5.8-9.6a89.3 89.3 0 0 1 8.1-5.7l2-1.2 2.2-.9a17 17 0 0 1 3.4-.7 7.6 7.6 0 0 1 4.2.8 5.4 5.4 0 0 1 2.5 5 22.5 22.5 0 0 1-.6 3.6.6.6 0 0 1-.1.4 25.8 25.8 0 0 1-.8 2.6c-.5 1.5-1 3.1-1.6 4.6-1.2 3.3-2.6 6.6-4 9.9a91.3 91.3 0 0 0-12.6 4.9c-7.8 3.4-15.6 9.4-17.6 17.6a15.7 15.7 0 0 0-.5 3s.8 12.5 15.7.5a32.1 32.1 0 0 0 7.6-7.2 99.2 99.2 0 0 0 9.8-15.8l1.3-2.3 3.8-2c5.5-3.1 10.7-7.2 13.3-12.6h.1zM30 29.3l.7-.6 1 1.4-.7.7s-1.7-.9-1-1.5zm-3.5-6.4l1 1.2-.9.4c-.8.5-1.1-1.2-1.1-1.2zM24.8 25a12.5 12.5 0 0 0 3.6 5.1l.4.3a13.8 13.8 0 0 1-3.6 1.5 6.9 6.9 0 0 1-3-2.1 11.1 11.1 0 0 1-1.8-3.6 22 22 0 0 0 4.4-1.2zm-5.5 1.4a11.2 11.2 0 0 0 4.1 5.6l.3.2a6.7 6.7 0 0 1-7.8-5.6zm-6.4-3.5s.1-3 1.8-3.8c0 0-2.1 5.5.5 9.7 0 0-2.6-.9-2.3-5.9zm34.7-8.1l-1.6.5a17.4 17.4 0 0 0 .5-2.2 9.7 9.7 0 0 0 .1-2.4 8.1 8.1 0 0 1 2.9-1.2 22.8 22.8 0 0 1-1.9 5.3zm2.2-8.4v1.8a8 8 0 0 0-3.4 1.1 8.8 8.8 0 0 0-.5-1.5 8.6 8.6 0 0 0-1.3-2 6.8 6.8 0 0 1 4.1-2.1 5.5 5.5 0 0 1 1.1 2.7zM43.6 5l-1.1-.5a10.6 10.6 0 0 0-3.5-.9c3.3-1.3 6.4-1.8 8.4-.9A7.8 7.8 0 0 0 43.6 5zm1.3 13.8l.6-1.8a3.5 3.5 0 0 1 1.4-.6c-.9 1.8-2 3.6-3 5.4.3-1 .6-2 1-3zm-19.4 20a43.5 43.5 0 0 1 5.9-2.5l-2.3 1.4-3.3 1.9-.9-.5zm-1.8.9a2.4 2.4 0 0 1 1.3.5l-.9.5a43.5 43.5 0 0 0-4.2 3.3l-1.8-.9a46.5 46.5 0 0 1 5.6-3.4zm-14 12.9a17.4 17.4 0 0 1 1-1.9l1 .2 1.1.3 1.4.6a13.4 13.4 0 0 0-1 4.4v.3a7 7 0 0 0-4.7.4 12.4 12.4 0 0 1 1.2-4.3zm1.5 8.5c-1.3-.3-1.8-1.3-2.2-2.5l2-.5a3 3 0 0 1 2.1.3 3.5 3.5 0 0 0 1.2 2.3 4.7 4.7 0 0 1-3.1.4zm3.7-11l-1.8-.7-1.2-.4a31.1 31.1 0 0 1 4.4-4.5 9 9 0 0 1 2.3.8 23.2 23.2 0 0 0-3.6 4.8zm1.7 7.6c-.8-.4-.7-1.2-.5-1.9a4.3 4.3 0 0 0 2.1 1.4l.9.3a3.6 3.6 0 0 1-2.5.2zm3.9-1.1a5.5 5.5 0 0 1-1.8-.2l-1-.4a10.1 10.1 0 0 0 3.3-1.3 1.8 1.8 0 0 0 1.2.5zm3.4-2.9l-.6.3c-.4.2-1.1.5-1.5.2a69.9 69.9 0 0 0 5.6-4.3 23.2 23.2 0 0 1-3.5 3.8zm10.2-14.1a106.4 106.4 0 0 1-7.9 9.4c-6.6 7.1-8.9 6.6-9.6 5.3a17.7 17.7 0 0 1 2.4-5c2.4-3.8 6.1-6.9 10.1-9.6l3.4-2.2 2.6-1.3 1.3-.6zm17.6-20.9h.6a8 8 0 0 1-.5 1.1s-.4 0-.5-.2a4.1 4.1 0 0 0 .4-.9zM44 30.1l-2.2 1.2a16.2 16.2 0 0 1 1-1.8 1 1 0 0 0 .5-.4l2.2-1.6a3.8 3.8 0 0 0 1.3.9zm4.1-2.6h-.2a3.1 3.1 0 0 1-1.5-.8 17.3 17.3 0 0 0 2.4-2.3 4.1 4.1 0 0 0 2.2.7 21.7 21.7 0 0 1-2.9 2.4zm4-4a2.6 2.6 0 0 1-2.4-.1 15.8 15.8 0 0 0 1.5-2.4 2.9 2.9 0 0 0 1.6.1H54q.3.2.3.3h-.1a7.6 7.6 0 0 1-2.1 2.1zm3.7-3.2s-.5.1-.7-.1a4.7 4.7 0 0 0 .6-1h.9a2.8 2.8 0 0 1-.8 1.1z"/></svg>