<svg xmlns="http://www.w3.org/2000/svg" width="256" height="256" viewBox="0 0 256 256"><path fill="#fff" d="M221.8 73.8l-.5.7a28.5 28.5 0 0 1-5.8 6.2h-.4a13.5 13.5 0 0 1-6-.2 83.3 83.3 0 0 0 2.9-8.4l-6.8-1.1c-4.1 15.5-16.1 28.4-29.7 38.7 29.4-56.7 59.3-132.8-26.6-103-41.1 14.2-97.5 39.9-101.8 82.7-5.7 57.2 67.1 53.1 80.7 35.2a12.1 12.1 0 0 0 2-2.6l.2-.2.4-.6c-2.3-3.4-4.5-6.9-6.7-10.3a32.5 32.5 0 0 0-2.9 2.3l-3.4 2.7a6.3 6.3 0 0 1-2.7.4 7.8 7.8 0 0 1-2.6-1.7 61.4 61.4 0 0 1-7.2-8.9l-.4-.7a3.3 3.3 0 0 1 2-4.4l3.2-.7a30.7 30.7 0 0 0 4.2-2.8 62.4 62.4 0 0 0-8.2-8.8A103.6 103.6 0 0 1 77.4 97a73.5 73.5 0 0 1-8.2 1c-2 .1-4.4.7-5.3-1.2a8.3 8.3 0 0 1-.6-2.1c1.5-12.3 8.7-26.1 23.2-38.3 6.1-5.2 18.2-14.1 32.2-22.8l8.1-4.8a55.8 55.8 0 0 1 8.7-3.6 73.9 73.9 0 0 1 13.7-2.7c5.9-.5 11.8.1 16.7 2.9 7.4 4.2 10 12.3 10.1 20.3a113.5 113.5 0 0 1-2.3 14.2l-.3 1.8c-1 3.4-2.2 6.9-3.4 10.3-2 6.2-4.2 12.3-6.4 18.4-4.9 13.4-10.2 26.5-16 39.5-17.2 5.7-34.2 11.7-50.5 19.6C66 164.6 35 188.6 26.7 221.2a56 56 0 0 0-1.7 12.2s3 49.7 62.6 1.8c8.5-5.4 18.7-14.3 30.5-28.9s24.8-35 39.2-63.1l5.1-9.1c5.1-2.6 10.2-5.2 15.1-8.1 22.2-12.5 43-28.7 53.4-50.4 0-.1.1-.2.1-.3-3.1-.4-6.2-.9-9.2-1.5zm-101.9 43.4l3-2.4 4 5.5-3 3.1s-6.9-3.8-4-6.2zm-14-25.4l4 4.7-3.3 1.7c-3.3 1.6-4.6-4.8-4.6-4.8zm-6.6 8.3c3.2 7.7 7.7 14.9 14.5 20.3l1.4 1.1a61.4 61.4 0 0 1-14.2 6.2 29.1 29.1 0 0 1-12.1-8.4c-3.5-4.2-5.4-9.3-7.1-14.5a86.9 86.9 0 0 0 17.5-4.7zm-22.1 5.4c3.2 8.5 8.1 16.7 16.3 22.5l1.3.9c-16.7 2-28.5-7.9-31.2-22.4a124.4 124.4 0 0 0 13.6-1zM51.7 91.8s.1-12.3 7.2-15.4c0 0-8.5 22.1 2 38.7 0 0-10.5-3.4-9.2-23.3zm138.8-32.5h-.2a31.9 31.9 0 0 0-6.2 1.9 72.1 72.1 0 0 0 1.9-9 43.5 43.5 0 0 0 .4-9.5 26.7 26.7 0 0 1 11.7-4.7 103.8 103.8 0 0 1-7.6 21.3zm8.6-33.6a32.9 32.9 0 0 1-.1 7 31.4 31.4 0 0 0-13.4 4.5 40.6 40.6 0 0 0-1.9-5.9 26.1 26.1 0 0 0-5.5-7.9 27.1 27.1 0 0 1 16.7-8.6c2.2 2.6 3.6 6.2 4.2 10.9zm-24.8-5.6l-4.1-2.3a43.4 43.4 0 0 0-14.1-3.4c13.3-5.1 25.4-7.3 33.4-3.7a32.3 32.3 0 0 0-15.2 9.4zm5.2 55.3c.9-2.5 1.7-4.9 2.5-7.4a38.7 38.7 0 0 1 5.5-2.5c-3.6 7.2-7.8 14.5-12 21.7 1.3-4 2.7-7.9 4-11.8zm-77.6 79.7c7.8-3.7 15.7-7 23.8-10.1l-9.4 5.9c-4.4 2.5-8.8 5-13.1 7.7a14.1 14.1 0 0 0-3.6-2.4zm-7.2 3.7a9.6 9.6 0 0 1 5.2 1.8l-3.5 2.4a159.3 159.3 0 0 0-16.7 13 37.7 37.7 0 0 0-7.3-3.5 190.7 190.7 0 0 1 22.3-13.7zm-56 51.6a78.3 78.3 0 0 1 4.1-7.5h.1c1.2-.3 2.6.3 3.8.6l4.4 1.2a36.4 36.4 0 0 1 5.7 2.5 50.6 50.6 0 0 0-3.9 17.6v1c-6-1.8-13.1-.5-19.1 1.8.6-7 3.4-13.8 4.9-17.2zm6.1 34.1c-5.1-1.2-7.4-5.4-8.8-10a33 33 0 0 1 8.2-2.1c2.7-.4 5.9-.4 8.4 1.1a12.1 12.1 0 0 0 4.8 9.2c-4 1.6-8.3 2.8-12.6 1.8zm14.8-44a57 57 0 0 0-7.2-2.9l-4.9-1.4a103.1 103.1 0 0 1 17.9-18.3 34 34 0 0 1 9 3.4 86.1 86.1 0 0 0-14.3 19zm6.9 30.3c-3.2-1.4-2.8-4.8-2.1-7.5 1.9 2.8 5.2 4.3 8.4 5.5a15.4 15.4 0 0 0 3.5 1c-3.1 1.3-6.7 2.3-9.8 1zm15.4-4.6a16.1 16.1 0 0 1-6.9-.5 35.6 35.6 0 0 1-4.1-1.7c3.5-.4 8.1-2.4 13.1-5.4a6.3 6.3 0 0 0 4.9 2.4c-2.2 1.7-4.5 3.5-7 5.2zm13.9-11.3L93 216c-1.5.6-4.4 2.1-5.8.6a222 222 0 0 0 22.3-16.9 128.3 128.3 0 0 1-13.7 15.2zm40.5-56.7a396.6 396.6 0 0 1-31.6 37.8c-26.5 28.2-35.5 26.5-38.5 21.4a89.6 89.6 0 0 1 9.6-20.3c10-15.2 24.7-27.6 40.5-38.3 4.5-3 9.1-5.9 13.7-8.8l10.5-5.2 4.9-2.4c-3 5.5-6.1 10.8-9.1 15.8zm70.3-83.6l2.4.4s-1 3.2-1.9 4.1a2.6 2.6 0 0 1-2-.5 12.8 12.8 0 0 0 1.5-4zm-30.8 45.9c-2.8 1.7-5.7 3.2-8.6 4.8 1.3-2.3 2.5-4.7 3.8-7.1l2.4-1.7c2.9-2 5.8-4.2 8.6-6.4a15 15 0 0 0 5.1 3.5c-3.7 2.4-7.4 4.7-11.3 6.9zm16.4-10.5h-.4a11.2 11.2 0 0 1-6.1-2.9 101.1 101.1 0 0 0 9.3-9.2 21.9 21.9 0 0 0 9.1 2.7 123.9 123.9 0 0 1-11.9 9.4zm16.4-16c-3 1.8-6.9 1-10-.5a71 71 0 0 0 6.3-9.5 22.1 22.1 0 0 0 6.3.6 14.7 14.7 0 0 1 4.7.2c.9.3 1.3.7 1.4 1.2s-.4.3-.5.5a28 28 0 0 1-8.2 7.5zm14.7-12.7s-2.1.2-3-.5a11.7 11.7 0 0 0 2.3-3.9l3.8.3s-1.6 3.2-3.1 4.1z"/></svg>